<svg version="1.1" id="Layer_1" xmlns="http://www.w3.org/2000/svg" xmlns:xlink="http://www.w3.org/1999/xlink" x="0px" y="0px" width="100%" viewBox="0 0 782 224" enable-background="new 0 0 782 224" xml:space="preserve"><path fill="#FDFDFD" opacity="1.000000" stroke="none" d=" M516.000000,225.000000   C344.000031,225.000000 172.500046,225.000000 1.000046,225.000000   C1.000031,150.333359 1.000031,75.666725 1.000015,1.000066   C261.666595,1.000044 522.333191,1.000044 782.999878,1.000022   C782.999878,75.666595 782.999878,150.333191 782.999939,224.999893   C694.166687,225.000000 605.333313,225.000000 516.000000,225.000000  M429.499878,207.720047   C543.426880,207.720047 657.353943,207.720047 771.361511,207.720047   C771.361511,146.093964 771.361511,85.067467 771.361511,24.046524   C517.916748,24.046524 264.848267,24.046524 11.708210,24.046524   C11.708210,85.359863 11.708210,146.397964 11.708210,207.720032   C150.901047,207.720032 289.700439,207.720032 429.499878,207.720047  z"/><path fill="#101010" opacity="1.000000" stroke="none" d=" M428.999847,207.720032   C289.700439,207.720032 150.901047,207.720032 11.708210,207.720032   C11.708210,146.397964 11.708210,85.359863 11.708210,24.046524   C264.848267,24.046524 517.916748,24.046524 771.361511,24.046524   C771.361511,85.067467 771.361511,146.093964 771.361511,207.720047   C657.353943,207.720047 543.426880,207.720047 428.999847,207.720032  M111.500000,29.030247   C80.055405,29.030247 48.610813,29.030247 17.110615,29.030247   C17.110615,86.938194 17.110615,144.345474 17.110615,201.800186   C266.873688,201.800186 516.398315,201.800186 765.768860,201.800186   C765.768860,177.478683 765.768860,153.485626 765.768860,128.939957   C756.252808,143.661163 738.889771,147.411667 726.264282,137.953033   C715.450806,129.851883 713.764404,113.150986 722.806702,102.870865   C727.584229,97.439331 733.786316,95.080055 740.936890,94.795044   C751.734070,94.364670 759.999756,98.673141 765.961121,109.060791   C765.961121,81.660385 765.961121,55.578640 765.961121,29.030247   C548.029053,29.030247 330.264526,29.030247 111.500000,29.030247  M748.366455,108.909134   C742.453247,106.086327 737.461426,106.679306 733.751465,110.645279   C730.627502,113.984818 729.787415,120.087646 731.877502,124.152153   C734.170654,128.611374 737.934937,130.744308 742.820557,130.496094   C747.951599,130.235443 751.586853,127.557579 753.182190,122.574844   C754.892029,117.234619 753.413635,112.783577 748.366455,108.909134  z"/><path fill="#FEFEFE" opacity="1.000000" stroke="none" d=" M112.000000,29.030247   C330.264526,29.030247 548.029053,29.030247 765.961121,29.030247   C765.961121,55.578640 765.961121,81.660385 765.961121,109.060791   C759.999756,98.673141 751.734070,94.364670 740.936890,94.795044   C733.786316,95.080055 727.584229,97.439331 722.806702,102.870865   C713.764404,113.150986 715.450806,129.851883 726.264282,137.953033   C738.889771,147.411667 756.252808,143.661163 765.768860,128.939957   C765.768860,153.485626 765.768860,177.478683 765.768860,201.800186   C516.398315,201.800186 266.873688,201.800186 17.110615,201.800186   C17.110615,144.345474 17.110615,86.938194 17.110615,29.030247   C48.610813,29.030247 80.055405,29.030247 112.000000,29.030247  M234.499786,187.610062   C277.763489,187.610062 321.027222,187.610062 364.467773,187.610062   C364.467773,141.612320 364.467773,96.050552 364.467773,50.324684   C250.943680,50.324684 137.630783,50.324684 24.392178,50.324684   C24.392178,96.193947 24.392178,141.742935 24.392178,187.216782   C24.994528,187.395020 25.301430,187.565353 25.608387,187.565460   C94.905510,187.588165 164.202637,187.598923 234.499786,187.610062  M420.538177,102.050339   C411.874207,112.470970 411.877869,126.620377 420.546875,135.607788   C429.102722,144.477890 445.262695,145.496429 455.390564,137.803940   C464.652466,130.769165 467.065826,116.900574 461.094910,106.312515   C453.214478,92.338318 431.239014,91.329338 420.538177,102.050339  M650.057251,122.626328   C650.140564,121.133575 650.332642,119.637733 650.290283,118.148560   C649.872498,103.463417 639.006836,94.131584 623.251221,94.887039   C608.965088,95.572037 599.163025,106.451691 600.091064,120.593155   C600.887207,132.723892 609.763123,141.610336 622.306702,142.835190   C636.241455,144.195892 646.339478,137.125412 650.057251,122.626328  M471.718048,130.489761   C471.718048,134.246765 471.718048,138.003769 471.718048,141.638077   C476.539062,141.638077 480.752502,141.638077 485.281647,141.638077   C485.281647,137.181549 485.281647,133.095688 485.281647,129.192429   C488.982941,128.111023 490.856201,129.577011 492.052948,132.698792   C492.998627,135.165543 494.257233,137.542236 495.640564,139.797119   C496.223145,140.746735 497.452606,141.849060 498.442169,141.903885   C502.644653,142.136703 506.867432,142.002731 511.736176,142.002731   C508.693787,136.284943 506.085632,131.383194 503.476227,126.479111   C510.377716,121.198883 512.335632,114.618263 510.072449,106.771049   C508.189789,100.243393 503.338837,96.637863 496.984009,96.161499   C488.753174,95.544502 480.441101,96.010948 471.718048,96.010948   C471.718048,107.270935 471.718048,118.382385 471.718048,130.489761  M402.759125,127.427505   C409.435242,122.954155 411.098541,116.382790 409.744019,109.043617   C408.521790,102.421242 404.250641,97.593658 397.572601,96.745850   C388.971191,95.653862 380.213074,95.796349 371.605713,95.410858   C371.605713,111.592613 371.605713,126.678352 371.605713,141.692444   C376.152039,141.692444 380.393616,141.692444 385.118774,141.692444   C385.118774,137.827728 385.118774,134.275848 385.118774,131.743378   C391.252869,130.341721 396.697693,129.097565 402.759125,127.427505  M530.224792,108.605896   C530.224792,119.676125 530.224792,130.746353 530.224792,141.623413   C535.293457,141.623413 539.517334,141.623413 543.993408,141.623413   C543.993408,130.306183 543.993408,119.377747 543.993408,107.872505   C548.783142,107.872505 553.318542,107.872505 557.672485,107.872505   C557.672485,103.531555 557.672485,99.775719 557.672485,95.954239   C543.812439,95.954239 530.220764,95.954239 516.595581,95.954239   C516.595581,100.084785 516.595581,103.965309 516.595581,108.077026   C521.089539,108.077026 525.243103,108.077026 530.224792,108.605896  M574.510010,95.733269   C571.388794,95.733269 568.267517,95.733269 565.029602,95.733269   C565.029602,111.369881 565.029602,126.561630 565.029602,141.803909   C569.433655,141.803909 573.529541,141.803909 578.115234,141.803909   C578.115234,137.223007 578.115234,132.820007 578.115234,127.948738   C583.487793,127.948738 588.380676,127.948738 593.289917,127.948738   C593.289917,123.999474 593.289917,120.559784 593.289917,116.632515   C588.128418,116.632515 583.204956,116.632515 578.282715,116.632515   C578.282715,113.375832 578.282715,110.619247 578.282715,107.475388   C583.986511,107.475388 589.421509,107.475388 594.816528,107.475388   C594.816528,103.340019 594.816528,99.604317 594.816528,95.733269   C588.150513,95.733269 581.828125,95.733269 574.510010,95.733269  M657.741943,97.533211   C657.741943,112.256203 657.741943,126.979195 657.741943,141.654419   C668.812439,141.654419 679.342407,141.654419 689.732178,141.654419   C689.732178,137.533569 689.732178,133.762253 689.732178,129.559357   C683.423706,129.559357 677.353882,129.559357 670.869385,129.559357   C670.869385,118.056015 670.869385,106.986549 670.869385,95.353943   C666.209106,95.777412 662.015137,96.158508 657.741943,97.533211  M709.880310,131.469421   C709.880310,119.694092 709.880310,107.918762 709.880310,95.946259   C705.240540,95.946259 700.980591,95.946259 696.604858,95.946259   C696.604858,111.390678 696.604858,126.590309 696.604858,141.694565   C701.161682,141.694565 705.401489,141.694565 709.880310,141.694565   C709.880310,138.398849 709.880310,135.427277 709.880310,131.469421  z"/><path fill="#FAFAFA" opacity="1.000000" stroke="none" d=" M748.698792,109.101364   C753.413635,112.783577 754.892029,117.234619 753.182190,122.574844   C751.586853,127.557579 747.951599,130.235443 742.820557,130.496094   C737.934937,130.744308 734.170654,128.611374 731.877502,124.152153   C729.787415,120.087646 730.627502,113.984818 733.751465,110.645279   C737.461426,106.679306 742.453247,106.086327 748.698792,109.101364  z"/><path fill="#030303" opacity="1.000000" stroke="none" d=" M233.999786,187.610046   C164.202637,187.598923 94.905510,187.588165 25.608387,187.565460   C25.301430,187.565353 24.994528,187.395020 24.392178,187.216782   C24.392178,141.742935 24.392178,96.193947 24.392178,50.324684   C137.630783,50.324684 250.943680,50.324684 364.467773,50.324684   C364.467773,96.050552 364.467773,141.612320 364.467773,187.610062   C321.027222,187.610062 277.763489,187.610062 233.999786,187.610046  M283.752716,125.497299   C283.752716,115.720779 283.752716,105.944260 283.752716,96.311157   C279.740601,94.787186 277.632904,96.147018 275.661011,99.338280   C270.813629,107.183105 265.565979,114.780624 260.130432,123.005531   C254.626068,114.731438 249.333344,107.106842 244.427963,99.240685   C242.431641,96.039429 240.276398,94.838379 236.633301,96.220970   C236.633301,111.393761 236.633301,126.498344 236.633301,141.787460   C238.561050,141.787460 240.302994,141.787460 242.708969,141.787460   C242.708969,130.621994 242.708969,119.684288 242.708969,108.746574   C247.482941,114.388893 251.321457,120.172478 255.168655,125.950302   C258.897919,131.551071 261.236115,131.554169 264.967163,125.969078   C268.950500,120.006287 272.929718,114.040695 276.910767,108.076340   C277.237762,108.214722 277.564728,108.353096 277.891724,108.491478   C277.891724,119.556244 277.891724,130.621017 277.891724,141.715942   C279.999359,141.715942 281.714539,141.715942 283.752686,141.715942   C283.752686,136.441376 283.752686,131.468277 283.752716,125.497299  M159.521072,126.711235   C160.181046,125.622177 160.577881,124.082748 161.544266,123.518112   C167.253616,120.182236 170.105911,114.166374 168.888779,107.414497   C167.824371,101.509888 163.273727,96.597847 157.136536,96.142540   C150.069748,95.618271 142.934189,96.020767 135.461075,96.020767   C135.461075,103.862602 135.461075,111.487244 135.461075,119.111877   C135.461075,126.684624 135.461075,134.257370 135.461075,141.765778   C137.768921,141.765778 139.363144,141.765778 141.419800,141.765778   C141.419800,136.280197 141.419800,131.036285 141.419800,125.933472   C147.960449,124.206703 152.843781,125.261063 155.779953,131.527206   C156.824615,133.756622 158.746613,135.565308 159.873413,137.767960   C161.911514,141.751938 164.802048,143.081985 169.436035,141.414597   C166.203781,136.603241 163.081818,131.956070 159.521072,126.711235  M331.223358,95.230820   C323.244568,97.679733 320.012573,101.085953 319.864960,107.201454   C319.718933,113.250595 322.906982,117.092743 330.622162,119.784332   C334.537170,121.150162 338.629883,122.018196 342.513885,123.457657   C345.809418,124.679024 348.447876,126.862175 347.833496,130.903732   C347.240784,134.802429 344.239075,136.312012 340.769897,136.912750   C332.724854,138.305847 328.386841,135.894974 324.146606,127.770081   C322.585327,127.868523 320.964081,127.970734 319.321991,128.074265   C320.349518,135.857590 323.809662,140.247498 330.569916,141.913727   C338.171783,143.787369 345.628815,143.675034 351.395325,137.432251   C355.921875,132.531784 354.955627,124.471863 349.284454,120.843880   C345.863403,118.655388 341.747650,117.533218 337.906738,116.027145   C334.978394,114.878899 331.822083,114.198509 329.072510,112.735985   C325.500366,110.835930 324.853333,106.818069 327.176208,103.814629   C331.189514,98.625481 343.910889,99.482468 346.243988,105.589989   C347.734131,109.490860 349.568329,109.790344 352.754791,109.025925   C352.851562,102.573067 349.941895,97.844078 343.887909,96.171600   C340.134521,95.134697 336.022003,95.397697 331.223358,95.230820  M37.450897,98.120049   C37.450897,112.688744 37.450897,127.257439 37.450897,141.816315   C39.796310,141.816315 41.414646,141.816315 43.369011,141.816315   C43.369011,136.834061 43.369011,132.055878 43.369011,126.886353   C46.179291,126.886353 48.661896,126.999283 51.129570,126.855682   C53.777733,126.701576 56.471970,126.564384 59.040462,125.966232   C65.799316,124.392197 69.846748,119.360687 70.240654,112.455048   C70.664604,105.022507 67.512871,98.553192 60.865398,97.256142   C53.488811,95.816826 45.731827,96.318863 38.137981,96.044632   C37.930965,96.037163 37.695377,96.820854 37.450897,98.120049  M112.101463,116.341400   C109.903130,110.973106 107.741364,105.589386 105.488464,100.244095   C104.585945,98.102730 104.440239,95.535484 100.776428,95.588745   C97.050964,95.642899 97.049248,98.456169 96.189720,100.492210   C91.097275,112.555237 86.162956,124.685181 81.209633,136.806595   C80.561836,138.391830 80.109970,140.057129 79.567352,141.685349   C79.861374,142.056107 80.155403,142.426849 80.449425,142.797607   C82.365585,141.807007 85.688225,141.111145 85.967674,139.777573   C87.670517,131.651321 92.984924,130.501831 99.884804,131.443604   C101.681244,131.688797 103.575615,131.712585 105.362701,131.435822   C110.374451,130.659561 113.684639,132.209488 114.684586,137.512695   C115.502441,141.850204 118.086098,143.023071 122.463333,141.452957   C119.081116,133.253540 115.739174,125.151749 112.101463,116.341400  M210.850876,110.646584   C209.146683,106.509460 207.598846,102.295998 205.639633,98.283386   C205.077759,97.132637 203.281204,95.838669 202.132721,95.911034   C200.726547,95.999641 198.971878,97.163727 198.150070,98.387901   C196.883362,100.274742 196.276917,102.606010 195.398285,104.751984   C190.383942,116.999283 185.371933,129.247528 180.359131,141.495468   C180.655853,141.916397 180.952591,142.337326 181.249313,142.758270   C183.252411,141.733765 186.713257,141.026855 187.017105,139.632172   C188.722961,131.801956 193.717484,130.440720 200.533585,131.436676   C202.487640,131.722198 204.571823,131.773895 206.504257,131.424103   C211.726135,130.478928 214.616257,132.643738 215.757339,137.644943   C216.704773,141.797485 219.158997,143.068680 223.437836,141.360428   C219.272049,131.267410 215.168716,121.325722 210.850876,110.646584  M303.361542,112.117332   C304.001251,111.410622 305.167938,110.723351 305.194824,109.994034   C305.364349,105.399292 305.280701,100.795219 305.280701,95.990250   C303.553650,95.990250 301.999420,95.990250 300.327148,95.990250   C300.327148,100.730698 300.214417,105.181335 300.424377,109.616692   C300.465271,110.480568 301.761078,111.285034 303.361542,112.117332  z"/><path fill="#050505" opacity="1.000000" stroke="none" d=" M420.783936,101.783264   C431.239014,91.329338 453.214478,92.338318 461.094910,106.312515   C467.065826,116.900574 464.652466,130.769165 455.390564,137.803940   C445.262695,145.496429 429.102722,144.477890 420.546875,135.607788   C411.877869,126.620377 411.874207,112.470970 420.783936,101.783264  M450.556641,121.730698   C451.431641,113.458298 447.371613,107.676888 440.267090,107.078537   C434.585815,106.600060 429.170227,110.425880 427.985443,115.754921   C426.611938,121.932777 429.666290,127.979149 435.145966,129.929871   C441.481476,132.185257 447.020935,129.451736 450.556641,121.730698  z"/><path fill="#050505" opacity="1.000000" stroke="none" d=" M650.036255,123.030243   C646.339478,137.125412 636.241455,144.195892 622.306702,142.835190   C609.763123,141.610336 600.887207,132.723892 600.091064,120.593155   C599.163025,106.451691 608.965088,95.572037 623.251221,94.887039   C639.006836,94.131584 649.872498,103.463417 650.290283,118.148560   C650.332642,119.637733 650.140564,121.133575 650.036255,123.030243  M615.542542,112.343636   C611.613953,120.084473 614.398376,127.966942 621.806335,130.076096   C627.568237,131.716599 633.470215,129.054428 635.886902,123.724754   C638.199585,118.624619 636.453003,112.269402 631.885681,109.165771   C626.571045,105.554344 621.122253,106.417389 615.542542,112.343636  z"/><path fill="#040404" opacity="1.000000" stroke="none" d=" M471.718048,129.991791   C471.718048,118.382385 471.718048,107.270935 471.718048,96.010948   C480.441101,96.010948 488.753174,95.544502 496.984009,96.161499   C503.338837,96.637863 508.189789,100.243393 510.072449,106.771049   C512.335632,114.618263 510.377716,121.198883 503.476227,126.479111   C506.085632,131.383194 508.693787,136.284943 511.736176,142.002731   C506.867432,142.002731 502.644653,142.136703 498.442169,141.903885   C497.452606,141.849060 496.223145,140.746735 495.640564,139.797119   C494.257233,137.542236 492.998627,135.165543 492.052948,132.698792   C490.856201,129.577011 488.982941,128.111023 485.281647,129.192429   C485.281647,133.095688 485.281647,137.181549 485.281647,141.638077   C480.752502,141.638077 476.539062,141.638077 471.718048,141.638077   C471.718048,138.003769 471.718048,134.246765 471.718048,129.991791  M491.106354,118.061455   C496.294830,117.164177 498.014374,115.205910 497.224976,111.093399   C496.442352,107.015938 493.347290,105.990341 485.090393,107.132179   C485.090393,110.675285 485.090393,114.232315 485.090393,118.093605   C486.951813,118.093605 488.578156,118.093605 491.106354,118.061455  z"/><path fill="#080808" opacity="1.000000" stroke="none" d=" M402.450806,127.640457   C396.697693,129.097565 391.252869,130.341721 385.118774,131.743378   C385.118774,134.275848 385.118774,137.827728 385.118774,141.692444   C380.393616,141.692444 376.152039,141.692444 371.605713,141.692444   C371.605713,126.678352 371.605713,111.592613 371.605713,95.410858   C380.213074,95.796349 388.971191,95.653862 397.572601,96.745850   C404.250641,97.593658 408.521790,102.421242 409.744019,109.043617   C411.098541,116.382790 409.435242,122.954155 402.450806,127.640457  M389.142944,106.965965   C387.726837,107.043411 386.310730,107.120850 384.939697,107.195824   C384.939697,111.335014 384.939697,115.075569 384.939697,118.779449   C392.533081,119.824844 395.564728,118.636398 396.419830,114.391281   C397.236816,110.335419 395.282104,108.075645 389.142944,106.965965  z"/><path fill="#080808" opacity="1.000000" stroke="none" d=" M529.810791,108.341461   C525.243103,108.077026 521.089539,108.077026 516.595581,108.077026   C516.595581,103.965309 516.595581,100.084785 516.595581,95.954239   C530.220764,95.954239 543.812439,95.954239 557.672485,95.954239   C557.672485,99.775719 557.672485,103.531555 557.672485,107.872505   C553.318542,107.872505 548.783142,107.872505 543.993408,107.872505   C543.993408,119.377747 543.993408,130.306183 543.993408,141.623413   C539.517334,141.623413 535.293457,141.623413 530.224792,141.623413   C530.224792,130.746353 530.224792,119.676125 529.810791,108.341461  z"/><path fill="#030303" opacity="1.000000" stroke="none" d=" M575.007874,95.733269   C581.828125,95.733269 588.150513,95.733269 594.816528,95.733269   C594.816528,99.604317 594.816528,103.340019 594.816528,107.475388   C589.421509,107.475388 583.986511,107.475388 578.282715,107.475388   C578.282715,110.619247 578.282715,113.375832 578.282715,116.632515   C583.204956,116.632515 588.128418,116.632515 593.289917,116.632515   C593.289917,120.559784 593.289917,123.999474 593.289917,127.948738   C588.380676,127.948738 583.487793,127.948738 578.115234,127.948738   C578.115234,132.820007 578.115234,137.223007 578.115234,141.803909   C573.529541,141.803909 569.433655,141.803909 565.029602,141.803909   C565.029602,126.561630 565.029602,111.369881 565.029602,95.733269   C568.267517,95.733269 571.388794,95.733269 575.007874,95.733269  z"/><path fill="#000000" opacity="1.000000" stroke="none" d=" M657.781555,97.036407   C662.015137,96.158508 666.209106,95.777412 670.869385,95.353943   C670.869385,106.986549 670.869385,118.056015 670.869385,129.559357   C677.353882,129.559357 683.423706,129.559357 689.732178,129.559357   C689.732178,133.762253 689.732178,137.533569 689.732178,141.654419   C679.342407,141.654419 668.812439,141.654419 657.741943,141.654419   C657.741943,126.979195 657.741943,112.256203 657.781555,97.036407  z"/><path fill="#0B0B0B" opacity="1.000000" stroke="none" d=" M709.880310,131.962570   C709.880310,135.427277 709.880310,138.398849 709.880310,141.694565   C705.401489,141.694565 701.161682,141.694565 696.604858,141.694565   C696.604858,126.590309 696.604858,111.390678 696.604858,95.946259   C700.980591,95.946259 705.240540,95.946259 709.880310,95.946259   C709.880310,107.918762 709.880310,119.694092 709.880310,131.962570  z"/><path fill="#F0F0F0" opacity="1.000000" stroke="none" d=" M283.752686,125.996231   C283.752686,131.468277 283.752686,136.441376 283.752686,141.715942   C281.714539,141.715942 279.999359,141.715942 277.891724,141.715942   C277.891724,130.621017 277.891724,119.556244 277.891724,108.491478   C277.564728,108.353096 277.237762,108.214722 276.910767,108.076340   C272.929718,114.040695 268.950500,120.006287 264.967163,125.969078   C261.236115,131.554169 258.897919,131.551071 255.168655,125.950302   C251.321457,120.172478 247.482941,114.388893 242.708969,108.746574   C242.708969,119.684288 242.708969,130.621994 242.708969,141.787460   C240.302994,141.787460 238.561050,141.787460 236.633301,141.787460   C236.633301,126.498344 236.633301,111.393761 236.633301,96.220970   C240.276398,94.838379 242.431641,96.039429 244.427963,99.240685   C249.333344,107.106842 254.626068,114.731438 260.130432,123.005531   C265.565979,114.780624 270.813629,107.183105 275.661011,99.338280   C277.632904,96.147018 279.740601,94.787186 283.752716,96.311157   C283.752716,105.944260 283.752716,115.720779 283.752686,125.996231  z"/><path fill="#F2F2F2" opacity="1.000000" stroke="none" d=" M159.740463,127.010063   C163.081818,131.956070 166.203781,136.603241 169.436035,141.414597   C164.802048,143.081985 161.911514,141.751938 159.873413,137.767960   C158.746613,135.565308 156.824615,133.756622 155.779953,131.527206   C152.843781,125.261063 147.960449,124.206703 141.419800,125.933472   C141.419800,131.036285 141.419800,136.280197 141.419800,141.765778   C139.363144,141.765778 137.768921,141.765778 135.461075,141.765778   C135.461075,134.257370 135.461075,126.684624 135.461075,119.111877   C135.461075,111.487244 135.461075,103.862602 135.461075,96.020767   C142.934189,96.020767 150.069748,95.618271 157.136536,96.142540   C163.273727,96.597847 167.824371,101.509888 168.888779,107.414497   C170.105911,114.166374 167.253616,120.182236 161.544266,123.518112   C160.577881,124.082748 160.181046,125.622177 159.740463,127.010063  M157.829483,118.800056   C162.236633,116.702553 163.646027,113.067619 162.824432,108.511742   C161.990738,103.888725 158.689285,101.816261 154.343109,101.545433   C150.121445,101.282372 145.870560,101.488342 141.527344,101.488342   C141.527344,107.678375 141.527344,113.567734 141.527344,120.204460   C146.910248,119.801445 151.977066,119.422096 157.829483,118.800056  z"/><path fill="#F4F4F4" opacity="1.000000" stroke="none" d=" M331.647034,95.154007   C336.022003,95.397697 340.134521,95.134697 343.887909,96.171600   C349.941895,97.844078 352.851562,102.573067 352.754791,109.025925   C349.568329,109.790344 347.734131,109.490860 346.243988,105.589989   C343.910889,99.482468 331.189514,98.625481 327.176208,103.814629   C324.853333,106.818069 325.500366,110.835930 329.072510,112.735985   C331.822083,114.198509 334.978394,114.878899 337.906738,116.027145   C341.747650,117.533218 345.863403,118.655388 349.284454,120.843880   C354.955627,124.471863 355.921875,132.531784 351.395325,137.432251   C345.628815,143.675034 338.171783,143.787369 330.569916,141.913727   C323.809662,140.247498 320.349518,135.857590 319.321991,128.074265   C320.964081,127.970734 322.585327,127.868523 324.146606,127.770081   C328.386841,135.894974 332.724854,138.305847 340.769897,136.912750   C344.239075,136.312012 347.240784,134.802429 347.833496,130.903732   C348.447876,126.862175 345.809418,124.679024 342.513885,123.457657   C338.629883,122.018196 334.537170,121.150162 330.622162,119.784332   C322.906982,117.092743 319.718933,113.250595 319.864960,107.201454   C320.012573,101.085953 323.244568,97.679733 331.647034,95.154007  z"/><path fill="#EFEFEF" opacity="1.000000" stroke="none" d=" M37.462006,97.677826   C37.695377,96.820854 37.930965,96.037163 38.137981,96.044632   C45.731827,96.318863 53.488811,95.816826 60.865398,97.256142   C67.512871,98.553192 70.664604,105.022507 70.240654,112.455048   C69.846748,119.360687 65.799316,124.392197 59.040462,125.966232   C56.471970,126.564384 53.777733,126.701576 51.129570,126.855682   C48.661896,126.999283 46.179291,126.886353 43.369011,126.886353   C43.369011,132.055878 43.369011,136.834061 43.369011,141.816315   C41.414646,141.816315 39.796310,141.816315 37.450897,141.816315   C37.450897,127.257439 37.450897,112.688744 37.462006,97.677826  M59.440258,102.729782   C54.184475,102.037491 48.928696,101.345192 43.486370,100.628326   C43.486370,108.187279 43.486370,114.438423 43.486370,121.077133   C47.291828,121.077133 50.889900,121.110657 54.487091,121.068542   C58.854084,121.017418 62.544903,119.327827 63.704826,114.985100   C64.883415,110.572495 64.819847,105.999001 59.440258,102.729782  z"/><path fill="#F6F6F6" opacity="1.000000" stroke="none" d=" M112.249344,116.695679   C115.739174,125.151749 119.081116,133.253540 122.463333,141.452957   C118.086098,143.023071 115.502441,141.850204 114.684586,137.512695   C113.684639,132.209488 110.374451,130.659561 105.362701,131.435822   C103.575615,131.712585 101.681244,131.688797 99.884804,131.443604   C92.984924,130.501831 87.670517,131.651321 85.967674,139.777573   C85.688225,141.111145 82.365585,141.807007 80.449425,142.797607   C80.155403,142.426849 79.861374,142.056107 79.567352,141.685349   C80.109970,140.057129 80.561836,138.391830 81.209633,136.806595   C86.162956,124.685181 91.097275,112.555237 96.189720,100.492210   C97.049248,98.456169 97.050964,95.642899 100.776428,95.588745   C104.440239,95.535484 104.585945,98.102730 105.488464,100.244095   C107.741364,105.589386 109.903130,110.973106 112.249344,116.695679  M104.928741,113.614410   C103.660812,110.664902 102.392891,107.715401 100.806061,104.024033   C97.627426,111.869934 94.847565,118.731529 92.019714,125.711578   C98.081123,125.711578 103.749924,125.711578 109.802734,125.711578   C108.140976,121.659126 106.642357,118.004501 104.928741,113.614410  z"/><path fill="#F6F6F6" opacity="1.000000" stroke="none" d=" M210.958130,111.015305   C215.168716,121.325722 219.272049,131.267410 223.437836,141.360428   C219.158997,143.068680 216.704773,141.797485 215.757339,137.644943   C214.616257,132.643738 211.726135,130.478928 206.504257,131.424103   C204.571823,131.773895 202.487640,131.722198 200.533585,131.436676   C193.717484,130.440720 188.722961,131.801956 187.017105,139.632172   C186.713257,141.026855 183.252411,141.733765 181.249313,142.758270   C180.952591,142.337326 180.655853,141.916397 180.359131,141.495468   C185.371933,129.247528 190.383942,116.999283 195.398285,104.751984   C196.276917,102.606010 196.883362,100.274742 198.150070,98.387901   C198.971878,97.163727 200.726547,95.999641 202.132721,95.911034   C203.281204,95.838669 205.077759,97.132637 205.639633,98.283386   C207.598846,102.295998 209.146683,106.509460 210.958130,111.015305  M198.198486,112.747803   C196.505051,117.024689 194.811615,121.301575 193.055069,125.737823   C199.071777,125.737823 204.743622,125.737823 210.838379,125.737823   C207.888809,118.540031 205.100189,111.734985 201.919678,103.973648   C200.516953,107.349075 199.536255,109.708969 198.198486,112.747803  z"/><path fill="#ECECEC" opacity="1.000000" stroke="none" d=" M302.919800,112.117119   C301.761078,111.285034 300.465271,110.480568 300.424377,109.616692   C300.214417,105.181335 300.327148,100.730698 300.327148,95.990250   C301.999420,95.990250 303.553650,95.990250 305.280701,95.990250   C305.280701,100.795219 305.364349,105.399292 305.194824,109.994034   C305.167938,110.723351 304.001251,111.410622 302.919800,112.117119  z"/><path fill="#FAFAFA" opacity="1.000000" stroke="none" d=" M450.411713,122.099503   C447.020935,129.451736 441.481476,132.185257 435.145966,129.929871   C429.666290,127.979149 426.611938,121.932777 427.985443,115.754921   C429.170227,110.425880 434.585815,106.600060 440.267090,107.078537   C447.371613,107.676888 451.431641,113.458298 450.411713,122.099503  z"/><path fill="#FAFAFA" opacity="1.000000" stroke="none" d=" M615.758057,112.014877   C621.122253,106.417389 626.571045,105.554344 631.885681,109.165771   C636.453003,112.269402 638.199585,118.624619 635.886902,123.724754   C633.470215,129.054428 627.568237,131.716599 621.806335,130.076096   C614.398376,127.966942 611.613953,120.084473 615.758057,112.014877  z"/><path fill="#FCFCFC" opacity="1.000000" stroke="none" d=" M490.655426,118.077530   C488.578156,118.093605 486.951813,118.093605 485.090393,118.093605   C485.090393,114.232315 485.090393,110.675285 485.090393,107.132179   C493.347290,105.990341 496.442352,107.015938 497.224976,111.093399   C498.014374,115.205910 496.294830,117.164177 490.655426,118.077530  z"/><path fill="#FAFAFA" opacity="1.000000" stroke="none" d=" M389.584656,106.983002   C395.282104,108.075645 397.236816,110.335419 396.419830,114.391281   C395.564728,118.636398 392.533081,119.824844 384.939697,118.779449   C384.939697,115.075569 384.939697,111.335014 384.939697,107.195824   C386.310730,107.120850 387.726837,107.043411 389.584656,106.983002  z"/><path fill="#0A0A0A" opacity="1.000000" stroke="none" d=" M157.436676,118.921402   C151.977066,119.422096 146.910248,119.801445 141.527344,120.204460   C141.527344,113.567734 141.527344,107.678375 141.527344,101.488342   C145.870560,101.488342 150.121445,101.282372 154.343109,101.545433   C158.689285,101.816261 161.990738,103.888725 162.824432,108.511742   C163.646027,113.067619 162.236633,116.702553 157.436676,118.921402  z"/><path fill="#080808" opacity="1.000000" stroke="none" d=" M59.809097,102.893234   C64.819847,105.999001 64.883415,110.572495 63.704826,114.985100   C62.544903,119.327827 58.854084,121.017418 54.487091,121.068542   C50.889900,121.110657 47.291828,121.077133 43.486370,121.077133   C43.486370,114.438423 43.486370,108.187279 43.486370,100.628326   C48.928696,101.345192 54.184475,102.037491 59.809097,102.893234  z"/><path fill="#070707" opacity="1.000000" stroke="none" d=" M105.036240,113.982147   C106.642357,118.004501 108.140976,121.659126 109.802734,125.711578   C103.749924,125.711578 98.081123,125.711578 92.019714,125.711578   C94.847565,118.731529 97.627426,111.869934 100.806061,104.024033   C102.392891,107.715401 103.660812,110.664902 105.036240,113.982147  z"/><path fill="#070707" opacity="1.000000" stroke="none" d=" M198.377014,112.408340   C199.536255,109.708969 200.516953,107.349075 201.919678,103.973648   C205.100189,111.734985 207.888809,118.540031 210.838379,125.737823   C204.743622,125.737823 199.071777,125.737823 193.055069,125.737823   C194.811615,121.301575 196.505051,117.024689 198.377014,112.408340  z"/></svg>